<?xml version="1.0" encoding="UTF-8" standalone="no"?>
<!DOCTYPE svg PUBLIC "-//W3C//DTD SVG 1.1//EN"
 "http://www.w3.org/Graphics/SVG/1.1/DTD/svg11.dtd">
<!-- Generated by graphviz version 13.0.1 (20250615.1724)
 -->
<!-- Pages: 1 -->
<svg width="497pt" height="221pt"
 viewBox="0.00 0.00 497.00 221.00" xmlns="http://www.w3.org/2000/svg" xmlns:xlink="http://www.w3.org/1999/xlink">
<g id="graph0" class="graph" transform="scale(1 1) rotate(0) translate(4 217)">
<polygon fill="white" stroke="none" points="-4,4 -4,-217 492.79,-217 492.79,4 -4,4"/>
<!-- E -->
<g id="node1" class="node">
<title>E</title>
<ellipse fill="none" stroke="black" cx="280.94" cy="-18" rx="75.41" ry="18"/>
<text xml:space="preserve" text-anchor="middle" x="280.94" y="-12.95" font-family="Times,serif" font-size="14.00">UrbanCruiser (E)</text>
</g>
<!-- R -->
<g id="node2" class="node">
<title>R</title>
<ellipse fill="none" stroke="black" cx="147.94" cy="-106.5" rx="71.82" ry="18"/>
<text xml:space="preserve" text-anchor="middle" x="147.94" y="-101.45" font-family="Times,serif" font-size="14.00">Rahmen&#45;Set (R)</text>
</g>
<!-- R&#45;&gt;E -->
<g id="edge1" class="edge">
<title>R&#45;&gt;E</title>
<path fill="none" stroke="black" d="M172.96,-89.23C193.76,-75.7 223.59,-56.3 246.63,-41.32"/>
<polygon fill="black" stroke="black" points="248.29,-44.41 254.77,-36.02 244.48,-38.54 248.29,-44.41"/>
<text xml:space="preserve" text-anchor="middle" x="229.73" y="-57.2" font-family="Times,serif" font-size="14.00">1</text>
</g>
<!-- W -->
<g id="node3" class="node">
<title>W</title>
<ellipse fill="none" stroke="black" cx="280.94" cy="-106.5" rx="43.67" ry="18"/>
<text xml:space="preserve" text-anchor="middle" x="280.94" y="-101.45" font-family="Times,serif" font-size="14.00">Rad (W)</text>
</g>
<!-- W&#45;&gt;E -->
<g id="edge2" class="edge">
<title>W&#45;&gt;E</title>
<path fill="none" stroke="black" d="M280.94,-88.41C280.94,-76.76 280.94,-61.05 280.94,-47.52"/>
<polygon fill="black" stroke="black" points="284.44,-47.86 280.94,-37.86 277.44,-47.86 284.44,-47.86"/>
<text xml:space="preserve" text-anchor="middle" x="284.32" y="-57.2" font-family="Times,serif" font-size="14.00">2</text>
</g>
<!-- A -->
<g id="node4" class="node">
<title>A</title>
<ellipse fill="none" stroke="black" cx="415.94" cy="-106.5" rx="72.85" ry="18"/>
<text xml:space="preserve" text-anchor="middle" x="415.94" y="-101.45" font-family="Times,serif" font-size="14.00">Antriebs&#45;Set (A)</text>
</g>
<!-- A&#45;&gt;E -->
<g id="edge3" class="edge">
<title>A&#45;&gt;E</title>
<path fill="none" stroke="black" d="M390.55,-89.23C369.43,-75.7 339.16,-56.3 315.77,-41.32"/>
<polygon fill="black" stroke="black" points="317.8,-38.46 307.49,-36.01 314.03,-44.36 317.8,-38.46"/>
<text xml:space="preserve" text-anchor="middle" x="363.91" y="-57.2" font-family="Times,serif" font-size="14.00">1</text>
</g>
<!-- H -->
<g id="node5" class="node">
<title>H</title>
<ellipse fill="none" stroke="black" cx="76.94" cy="-195" rx="76.94" ry="18"/>
<text xml:space="preserve" text-anchor="middle" x="76.94" y="-189.95" font-family="Times,serif" font-size="14.00">Hauptrahmen (H)</text>
</g>
<!-- H&#45;&gt;R -->
<g id="edge4" class="edge">
<title>H&#45;&gt;R</title>
<path fill="none" stroke="black" d="M90.97,-176.91C101.18,-164.47 115.19,-147.41 126.76,-133.31"/>
<polygon fill="black" stroke="black" points="129.34,-135.67 132.98,-125.72 123.93,-131.23 129.34,-135.67"/>
<text xml:space="preserve" text-anchor="middle" x="122.18" y="-145.7" font-family="Times,serif" font-size="14.00">1</text>
</g>
<!-- G -->
<g id="node6" class="node">
<title>G</title>
<ellipse fill="none" stroke="black" cx="219.94" cy="-195" rx="48.28" ry="18"/>
<text xml:space="preserve" text-anchor="middle" x="219.94" y="-189.95" font-family="Times,serif" font-size="14.00">Gabel (G)</text>
</g>
<!-- G&#45;&gt;R -->
<g id="edge5" class="edge">
<title>G&#45;&gt;R</title>
<path fill="none" stroke="black" d="M206.06,-177.32C195.67,-164.84 181.26,-147.53 169.39,-133.27"/>
<polygon fill="black" stroke="black" points="172.08,-131.03 163,-125.59 166.7,-135.51 172.08,-131.03"/>
<text xml:space="preserve" text-anchor="middle" x="193.77" y="-145.7" font-family="Times,serif" font-size="14.00">1</text>
</g>
</g>
</svg>
