<?xml version="1.0" encoding="UTF-8" standalone="no"?>
<!DOCTYPE svg PUBLIC "-//W3C//DTD SVG 1.1//EN"
 "http://www.w3.org/Graphics/SVG/1.1/DTD/svg11.dtd">
<!-- Generated by graphviz version 13.0.1 (20250615.1724)
 -->
<!-- Pages: 1 -->
<svg width="526pt" height="221pt"
 viewBox="0.00 0.00 526.00 221.00" xmlns="http://www.w3.org/2000/svg" xmlns:xlink="http://www.w3.org/1999/xlink">
<g id="graph0" class="graph" transform="scale(1 1) rotate(0) translate(4 217)">
<polygon fill="white" stroke="none" points="-4,4 -4,-217 522.25,-217 522.25,4 -4,4"/>
<!-- E -->
<g id="node1" class="node">
<title>E</title>
<ellipse fill="none" stroke="black" cx="207" cy="-18" rx="69.78" ry="18"/>
<text xml:space="preserve" text-anchor="middle" x="207" y="-12.95" font-family="Times,serif" font-size="14.00">EchoSphere (E)</text>
</g>
<!-- G -->
<g id="node2" class="node">
<title>G</title>
<ellipse fill="none" stroke="black" cx="58" cy="-106.5" rx="58" ry="18"/>
<text xml:space="preserve" text-anchor="middle" x="58" y="-101.45" font-family="Times,serif" font-size="14.00">Gehäuse (G)</text>
</g>
<!-- G&#45;&gt;E -->
<g id="edge1" class="edge">
<title>G&#45;&gt;E</title>
<path fill="none" stroke="black" d="M84.64,-90.04C108.39,-76.25 143.4,-55.92 169.89,-40.54"/>
<polygon fill="black" stroke="black" points="171.39,-43.72 178.28,-35.68 167.87,-37.67 171.39,-43.72"/>
<text xml:space="preserve" text-anchor="middle" x="149.23" y="-57.2" font-family="Times,serif" font-size="14.00">1</text>
</g>
<!-- L -->
<g id="node3" class="node">
<title>L</title>
<ellipse fill="none" stroke="black" cx="207" cy="-106.5" rx="73.36" ry="18"/>
<text xml:space="preserve" text-anchor="middle" x="207" y="-101.45" font-family="Times,serif" font-size="14.00">Lautsprecher (L)</text>
</g>
<!-- L&#45;&gt;E -->
<g id="edge2" class="edge">
<title>L&#45;&gt;E</title>
<path fill="none" stroke="black" d="M207,-88.41C207,-76.76 207,-61.05 207,-47.52"/>
<polygon fill="black" stroke="black" points="210.51,-47.86 207,-37.86 203.51,-47.86 210.51,-47.86"/>
<text xml:space="preserve" text-anchor="middle" x="210.38" y="-57.2" font-family="Times,serif" font-size="14.00">2</text>
</g>
<!-- P -->
<g id="node4" class="node">
<title>P</title>
<ellipse fill="none" stroke="black" cx="371" cy="-106.5" rx="72.34" ry="18"/>
<text xml:space="preserve" text-anchor="middle" x="371" y="-101.45" font-family="Times,serif" font-size="14.00">Hauptplatine (P)</text>
</g>
<!-- P&#45;&gt;E -->
<g id="edge3" class="edge">
<title>P&#45;&gt;E</title>
<path fill="none" stroke="black" d="M341.31,-89.84C314.8,-75.86 275.78,-55.28 246.63,-39.9"/>
<polygon fill="black" stroke="black" points="248.58,-36.97 238.1,-35.4 245.31,-43.16 248.58,-36.97"/>
<text xml:space="preserve" text-anchor="middle" x="307.07" y="-57.2" font-family="Times,serif" font-size="14.00">1</text>
</g>
<!-- C -->
<g id="node5" class="node">
<title>C</title>
<ellipse fill="none" stroke="black" cx="292" cy="-195" rx="71.82" ry="18"/>
<text xml:space="preserve" text-anchor="middle" x="292" y="-189.95" font-family="Times,serif" font-size="14.00">CPU&#45;Modul (C)</text>
</g>
<!-- C&#45;&gt;P -->
<g id="edge4" class="edge">
<title>C&#45;&gt;P</title>
<path fill="none" stroke="black" d="M307.24,-177.32C318.75,-164.72 334.75,-147.2 347.84,-132.86"/>
<polygon fill="black" stroke="black" points="350.37,-135.28 354.53,-125.54 345.2,-130.56 350.37,-135.28"/>
<text xml:space="preserve" text-anchor="middle" x="341.96" y="-145.7" font-family="Times,serif" font-size="14.00">1</text>
</g>
<!-- R -->
<g id="node6" class="node">
<title>R</title>
<ellipse fill="none" stroke="black" cx="450" cy="-195" rx="68.24" ry="18"/>
<text xml:space="preserve" text-anchor="middle" x="450" y="-189.95" font-family="Times,serif" font-size="14.00">RAM&#45;Chip (R)</text>
</g>
<!-- R&#45;&gt;P -->
<g id="edge5" class="edge">
<title>R&#45;&gt;P</title>
<path fill="none" stroke="black" d="M434.77,-177.32C423.26,-164.72 407.26,-147.2 394.17,-132.86"/>
<polygon fill="black" stroke="black" points="396.81,-130.56 387.48,-125.54 391.64,-135.28 396.81,-130.56"/>
<text xml:space="preserve" text-anchor="middle" x="420.96" y="-145.7" font-family="Times,serif" font-size="14.00">2</text>
</g>
</g>
</svg>
